<svg width="16" height="12" viewBox="0 0 16 12" fill="none" xmlns="http://www.w3.org/2000/svg">
<path d="M5.54963 11.5749C5.4163 11.5749 5.2913 11.5539 5.17463 11.5119C5.05797 11.4706 4.94963 11.3999 4.84963 11.2999L0.549635 6.9999C0.366301 6.81657 0.278635 6.5789 0.286635 6.2869C0.295301 5.99557 0.391301 5.75824 0.574634 5.5749C0.757968 5.39157 0.991301 5.2999 1.27463 5.2999C1.55797 5.2999 1.7913 5.39157 1.97463 5.5749L5.54963 9.1499L14.0246 0.674902C14.208 0.491569 14.4456 0.399902 14.7376 0.399902C15.029 0.399902 15.2663 0.491569 15.4496 0.674902C15.633 0.858236 15.7246 1.09557 15.7246 1.3869C15.7246 1.6789 15.633 1.91657 15.4496 2.0999L6.24963 11.2999C6.14963 11.3999 6.0413 11.4706 5.92463 11.5119C5.80797 11.5539 5.68297 11.5749 5.54963 11.5749Z" fill="white"/>
</svg>
